<?xml version="1.0" standalone="no"?>
<!DOCTYPE svg PUBLIC "-//W3C//DTD SVG 20010904//EN"
 "http://www.w3.org/TR/2001/REC-SVG-20010904/DTD/svg10.dtd">
<svg version="1.0" xmlns="http://www.w3.org/2000/svg"
 width="100.000000pt" height="100.000000pt" viewBox="0 0 100.000000 100.000000"
 preserveAspectRatio="xMidYMid meet">
<metadata>
Created by potrace 1.11, written by Peter Selinger 2001-2013
</metadata>
<g transform="translate(0.000000,100.000000) scale(0.100000,-0.100000)"
fill="#000000" stroke="none">
<path d="M155 952 c-9 -23 -6 -29 15 -35 25 -6 26 -47 5 -126 -8 -31 -37 -157
-65 -281 -28 -124 -62 -271 -75 -327 -29 -121 -30 -127 -9 -144 23 -19 274
-20 281 -1 3 7 -4 20 -17 29 -27 19 -25 41 23 241 33 133 47 177 47 141 0 -8
34 -107 75 -219 41 -112 75 -205 75 -205 0 0 64 0 142 0 l142 0 18 75 c10 41
45 194 78 340 33 146 63 276 66 290 3 14 8 36 10 50 3 14 10 43 16 65 28 109
21 116 -133 117 -63 0 -122 0 -131 -1 -24 -1 -23 -29 3 -49 19 -16 20 -20 6
-82 -58 -270 -81 -370 -86 -370 -3 0 -46 113 -96 250 l-90 250 -45 1 c-226 4
-250 4 -255 -9z"/>
</g>
</svg>
